<svg xmlns="http://www.w3.org/2000/svg" id="SVGRoot" width="48.001" height="38.944" version="1.1" viewBox="0 0 48.001 38.944">
 <g fill="none" stroke="#201c17" stroke-width="1.9446">
  <g stroke-linecap="round" stroke-linejoin="round">
   <path class="cls-1" d="m8.8744 30.386a55.365 55.365 0 0 1-3.7354-6.802c-3.7515-7.9457-4.9399-13.858-3.6623-17.985a4.3308 4.3308 0 0 1 2.2575-2.1524 17.37 17.37 0 0 1 2.5957-1.2111c0.62414-0.21159 1.1465-0.37411 1.5612-0.47874a3.2551 3.2551 0 0 1 2.0509 0.061545 2.6723 2.6723 0 0 1 1.7354 1.7457c0.5307 1.9022 1.1495 4.2358 1.7834 7.0492a3.2031 3.2031 0 0 1-1.2381 3.0708c-0.25044 0.24026-0.87205 0.80567-1.8192 1.6018a39.943 39.943 0 0 0 1.9695 4.8088 44.307 44.307 0 0 0 2.3928 4.5238c1.2584-0.24039 2.0851-0.39265 2.4443-0.43749a3.8759 3.8759 0 0 1 1.9389 0.19053 2.715 2.715 0 0 1 1.1832 0.79612c1.3266 1.6551 2.7997 3.6204 4.3838 5.8769a2.6961 2.6961 0 0 1 0.39943 2.1815 3.6437 3.6437 0 0 1-1.3578 1.9903c-0.32094 0.23125-0.76429 0.52328-1.3606 0.89129a21.768 21.768 0 0 1-2.5525 1.2835 4.9609 4.9609 0 0 1-2.5669 0.57468l-0.46999-0.06008a13.092 13.092 0 0 1-4.1172-2.8049"/>
   <line class="cls-1" x1="39.62" x2="25.561" y1="12.423" y2="12.459"/>
   <line class="cls-1" x1="39.62" x2="25.561" y1="8.7045" y2="8.7406"/>
   <line class="cls-1" x1="39.62" x2="32.591" y1="16.141" y2="16.159"/>
  </g>
  <path class="cls-1" d="m34.321 1.1163c-7.7486-0.97935-14.665 3.1605-15.434 9.2501a9.4351 9.4351 0 0 0 1.6582 6.4863 13.508 13.508 0 0 0 4.2765 3.9958 17.04 17.04 0 0 0 5.8439 2.1704 24.28 24.28 0 0 1-0.90201 4.9211 0.9173 0.9173 0 0 0 1.1655 1.1459c3.2836-1.1066 15.056-7.4698 16.03-15.172 0.76967-6.0897-4.8886-11.819-12.637-12.798z"/>
 </g>
</svg>