<svg xmlns="http://www.w3.org/2000/svg" id="Layer_1" data-name="Layer 1" viewBox="0 0 48 48"><title>Artboard 80 copy 76</title>
<polyline points="32.38 24.84 32.38 10.66 14.3 10.66 7.75 17.22 7.75 43.44 32.38 43.44 32.38 31.43" style="fill:none;stroke:#959595;stroke-linecap:round;stroke-linejoin:round;stroke-width:2px"/>
<polyline points="7.75 17.22 14.3 17.22 14.3 10.66" style="fill:none;stroke:#959595;stroke-linecap:round;stroke-linejoin:round;stroke-width:2px"/>
<line x1="36.38" y1="39.44" x2="36.38" y2="20.84" style="fill:none;stroke:#959595;stroke-linecap:round;stroke-linejoin:round;stroke-width:2px"/>
<polyline points="36.38 20.84 36.38 6.66 18.3 6.66" style="fill:none;stroke:#959595;stroke-linecap:round;stroke-linejoin:round;stroke-width:2px"/>
<line x1="40.38" y1="35.44" x2="40.38" y2="16.84" style="fill:none;stroke:#959595;stroke-linecap:round;stroke-linejoin:round;stroke-width:2px"/>
<polyline points="40.38 16.84 40.38 2.66 22.3 2.66" style="fill:none;stroke:#959595;stroke-linecap:round;stroke-linejoin:round;stroke-width:2px"/>
<line x1="12.09" y1="22.59" x2="25.09" y2="22.59" style="fill:none;stroke:#959595;stroke-linecap:round;stroke-linejoin:round"/>
<line x1="12.09" y1="25.87" x2="22.31" y2="25.87" style="fill:none;stroke:#959595;stroke-linecap:round;stroke-linejoin:round"/>
<line x1="12.09" y1="29.14" x2="22.31" y2="29.14" style="fill:none;stroke:#959595;stroke-linecap:round;stroke-linejoin:round"/>
<line x1="12.09" y1="32.42" x2="28.04" y2="32.42" style="fill:none;stroke:#959595;stroke-linecap:round;stroke-linejoin:round"/>
<line x1="12.09" y1="35.7" x2="28.04" y2="35.7" style="fill:none;stroke:#959595;stroke-linecap:round;stroke-linejoin:round"/></svg>