<svg xmlns="http://www.w3.org/2000/svg" id="SVGRoot" width="37.247" height="48" version="1.1" viewBox="0 0 37.247 48">
 <g transform="matrix(.15567 0 0 .15567 .64927 7.4988)" stroke-width="12.494">
  <path class="cls-2" d="m126.81 249.75c11.625 2.7974 28.356 4.1994 40.313 4.1763 9.8375-0.85019 20.642 0.85911 41.795-10.141l11.302-55.427c-15.662 7.3031-32.697 11.194-49.976 11.415-21.239 1.0773-41.904-7.0972-56.659-22.413-7.0953-8.957-11.876-19.523-13.921-30.765h58.035l7.44-31.461h-72.297v-20.882h62.868l9.1906-31.044h-64.958c7.0069-31.403 35.358-53.383 67.517-52.343 16.906 0.35254 33.588 3.944 49.141 10.58l12.25-50.116c-20.827-8.8205-43.229-13.32-65.846-13.225-38.827-0.78132-75.963 15.871-101.21 45.383-15.043 17.047-25.488 37.65-30.348 59.86h-21.933l-7.44 31.183h24.64v21.299h-17.638l-7.0024 31.322h27.842c3.5855 20.552 12.246 39.884 25.197 56.241 4.7597 6.2631 10.122 12.045 16.009 17.262" fill="none" stroke="#000000" stroke-linecap="round" stroke-linejoin="round" stroke-width="12.494"/>
 </g>
</svg>