<svg xmlns="http://www.w3.org/2000/svg" xmlns:xlink="http://www.w3.org/1999/xlink" version="1.1" id="Layer_1" x="0px" y="0px" viewBox="0 0 256 256" style="enable-background:new 0 0 256 256;" xml:space="preserve">
<style type="text/css">
	.st0{fill:#FFFFFF;}
	.st1{fill:#36302F;}
	.st2{fill:#AE0000;}
	.st3{fill:#C29D67;}
	.st4{fill:#26221E;}
	.st5{fill:#645237;}
	.st6{fill:#183D4D;}
	.st7{fill:none;stroke:#26221E;stroke-width:0.4;stroke-miterlimit:10;}
</style>
<path class="st0" d="M247,126.7c-0.5,66.3-53.7,120-120,120c-66.3,0-120-53.7-120-120C7,60.5,60.7,6.3,127,6.7  C193.5,7.2,247.5,61.7,247,126.7"/>
<rect x="46.4" y="54.2" class="st1" width="40.9" height="139.9"/>
<rect x="87.3" y="47.6" class="st2" width="4.3" height="158.6"/>
<rect x="91.6" y="63.7" class="st3" width="43.6" height="153.1"/>
<rect x="160.6" y="56.2" class="st4" width="48.6" height="130.6"/>
<rect x="135.3" y="50.5" class="st5" width="18.6" height="154.4"/>
<rect x="153.8" y="39.2" class="st6" width="6.7" height="160.6"/>
<g>
	<g id="whiteFill_10_">
		<path class="st0" d="M205,177.2l-0.1-0.1v-29.3c0-0.7-0.4-1.3-0.9-1.7c-2.5-2.4-9.7-4.1-17.8-4.3H186l0.1-0.2    c0.5-2.6,1-5.5,1.4-7.9s0.7-4.6,1.1-6.6c1.7-8.7,0.9-18-2.1-25.4c-1.9-4.7-7.4-8-14.7-8.8h-0.1l-0.5-0.9l0.1-0.1    c0.5-1,0.9-1.8,1.1-2.1c0.2-0.4,0.1-0.8-0.1-1.2l-0.1-0.1l3.3-5.5c0.1-0.2,0.1-0.4,0.1-0.6c-0.1-0.2-0.2-0.4-0.4-0.5l-1.6-0.9    l-2.4-1.4h-0.1l-0.1-0.1v-0.1c0-0.8,0.1-1.6,0.3-2.4c0.1-0.2,0.1-0.5,0.1-0.8c0-0.6,0.1-3.7-1-5.1c-2.2-2.6-5.5-4.2-8.9-4.3h-0.2    c-2.6-0.2-4.9,1.6-5.4,4.1V71h-0.1c-0.4,0.3-3.5,2.8-2.5,5.6l1,3.1c0.1,1.8,0.5,3.6,1.2,5.4c1.4,3.5,2.8,5.6,4.2,6.1h0.1v0.1    c0.1,0.2,0.2,0.9,0.3,1.5v0.2h-0.2c-0.5,0.1-0.9,0.4-1.1,0.8l-0.1,0.1h-0.1c-0.3,0-7.4-0.1-10.4,4.3c-2.2,3.3-8.9,9.9-11.8,12.5    l-0.4,0.3V98.3c0-0.9-0.3-1.8-1-2.5c-0.3-0.4-0.7-0.7-1.2-1c-0.7-0.5-1.5-0.9-1.7-1l0,0c-0.5-0.3-1.1-0.4-1.7-0.4h-1.4l-1-0.1    h-0.6l-3.9,0.1v-0.6l-1.8,0.1V66c0-0.2-0.1-0.4-0.2-0.6c-0.2-0.2-0.4-0.2-0.6-0.2l-12,1.1c-0.5,0-0.9,0.4-0.9,0.9v1.3l0,0v25    l-5.1,0.4v0.5l-12.6,0.4c-1.9,0-3.4,1.6-3.4,3.5v14.5h-3.8V112h-4.5c-0.1-0.1-0.3-0.1-0.4-0.2l-0.1-0.1V88.4    c0-0.2-0.1-0.4-0.2-0.6c-0.2-0.2-0.4-0.2-0.6-0.2l-12.1-0.2c-0.4,0-0.8,0.4-0.8,0.9v1.3l0,0v22.2l-0.1,0.1l-0.4,0.2h-4.3v0.7h-1.3    c-0.9,0-1.9,0.3-2.7,0.8l-0.1,0.1h-0.1c-2.4,0.6-4.1,2.8-4.1,5.3v21.7l-0.6-0.1l-0.6-0.1c-0.7-0.1-1.3,0.1-1.9,0.4    c-0.2,0.1-0.4,0.1-0.5,0.2c-0.6,0.5-1,1.3-1,2.1c-0.3,2,0,4.7,3.7,8.9c0.3,0.3,0.6,0.6,0.9,0.9l0.1,0.1v0.9h-1    c-0.8,0.1-1.5,0.4-2.1,0.9l-0.2,0.2l-0.1-0.2l-0.5,0.6c0,0-0.9,1.1,2.4,4.2c0.4,0.4,0.9,0.9,1.4,1.2l0.1,0.1v2.5    c0,1.8,0.9,3.5,2.4,4.5l0.1,0.1v1.1h-0.2c-1.4,0.1-2.5,1.4-2.4,2.8c0.1,1.4,1.4,2.5,2.8,2.4c1.3-0.1,2.4-1.2,2.4-2.6    c0-0.2,0-0.4-0.1-0.5v-0.1l0.1-0.1l1.5-2h5.8v7.8c-0.1,1.3,0.8,2.5,2,2.9l7.6,1.7H73l1.4,0.3h0.1l10.2,2.3h0.1l1.6,0.4l14.9,3.3    h0.1c0.2,0,0.3,0.1,0.5,0.1l0.6-0.2l0,0c4.2,0.4,8.4,0.2,12.5-0.6c4.6-1,5-1.7,5-1.9c0,0,0-0.3-1.1-0.6h-0.1h-0.1l-1.1-0.2    l-0.7-0.1h-0.1c-0.9-0.5-1.7-0.8-2.7-1.1l-0.2-0.1l0.3-11.3c0.1-3.1,0-6.2-0.5-9.3v-0.3l11.3,1.1l-0.1,0.3    c-0.1,0.2-0.2,0.5-0.2,0.8c0,0.5,0.2,1,0.6,1.3c0.4,0.3,0.9,0.5,1.4,0.4c0.2,0,0.4-0.1,0.6-0.2h0.1l0.6-0.1c1-0.1,1.7-1,1.7-2    v-0.1l-0.2-0.9l0.5,0.7c0.3,0.4,0.8,0.6,1.3,0.6c0.2,0,0.3-0.1,0.5-0.1h0.1l0.5-0.1c0.9-0.1,1.5-0.9,1.5-1.8v-0.2l0.1-0.1    c1.1-0.9,1.7-2.2,1.7-3.6v-7.8h0.2c2.9,0.5,5.4,0.9,7.5,1.1h0.2l2.5,13.7c0.3,0.2,0.6,0.4,0.9,0.4c0.4,0,0.7-0.2,1-0.4l-1.5-13.2    h0.3c1,0.1,1.7,0.2,2.4,0.2l1.6,0.1h0.2v0.2l-0.5,31.7c0.2,0.2,0.6,0.3,0.9,0.2h15.2c4.3,1.2,8.7,1.8,13.1,1.9    c2.7,0.3,5.3,0.4,8,0.4c11.7,0,21.5-2.6,21.5-5.8C209.4,179.5,207.8,178.3,205,177.2z M152.7,183.2V183l2.7-31h6v28.2    c0,0.9,0.8,1.9,2.3,2.7l0.7,0.4L152.7,183.2z"/>
		<path class="st0" d="M115.6,182.7l-0.2-0.1L115.6,182.7z"/>
		<path class="st0" d="M117.9,183.7c-0.8-0.4-1.5-0.7-2.4-1c0.7,0.2,1.4,0.5,2.1,0.9L117.9,183.7z"/>
	</g>
	<path id="blackStroke_10_" class="st7" d="M51,140.4v-21.6c0-3,2.4-5.5,5.5-5.5c0,0,0,0,0,0h29.1c3,0,5.5,2.4,5.5,5.5l0,0v10.5    M51,153.8v-0.9 M51,160.8v2.5c0,3,2.4,5.5,5.5,5.5c0,0,0,0,0,0h6.9 M89.5,130.8v-10.3c0-2.8-2.3-5-5.1-5H57.6   c-2.8,0-5.1,2.3-5.1,5.1v0l0,0v20.3 M52.5,162c0.2,2.6,2.4,4.7,5.1,4.7h5.7 M113.8,161.7L127,163c1.9,0.2,3.6-1.2,3.8-3.2   c0-0.1,0-0.2,0-0.3v-10.3 M130.8,112.9v-16c0-1.9-1.6-3.5-3.5-3.5c0,0,0,0,0,0h-0.1l-37.1,1.3c-1.9,0-3.4,1.6-3.4,3.5v14.4    M127.7,163.1h2.4c1.9,0.2,3.6-1.2,3.8-3.2c0-0.1,0-0.2,0-0.3v-9.7 M133.9,111.9V96.9c0-1.9-1.6-3.5-3.5-3.5c0,0,0,0,0,0h-0.1   l-1.5,0l-1-0.1 M132.4,162.4l0.7-0.3c1.7-0.7,2.8-2.4,2.8-4.3v-7.8 M135.9,111V98.3c0-0.9-0.4-1.9-1-2.5c-0.3-0.4-0.7-0.7-1.1-0.9   c-0.9-0.5-1.7-1-1.7-1 M123.4,93.6V93l-5.6,0.2c-1.6-0.7-3.3-1.1-5.1-1.2c-1.7,0-3.5,0.5-4.9,1.4l-5,0.3v0.4 M107.9,68.6V94    M109.5,68.3v25.6 M119.9,67.3v26.4 M121.6,67.3v26.3 M121.6,66c0-0.5-0.4-0.9-0.9-0.9l-12,1.1c-0.5,0-0.8,0.4-0.8,0.9v1.3   l13.7-1.2L121.6,66z M64,89.6v23 M65.7,89.6v23 M76.1,89.6v23 M77.7,89.6v23 M77.7,88.4c0-0.5-0.4-0.9-0.9-0.9l-12-0.2   c-0.5,0-0.8,0.4-0.8,0.9v1.3l13.7,0.1L77.7,88.4z M91.1,119.5v-1.7c0-2.8-2.3-5.1-5.1-5.1l0,0h-28c-1,0-1.9,0.3-2.7,0.8    M82.8,112.6V112h-4.5c-2.3-1.1-4.9-1.7-7.5-1.7c-2.6,0-5.1,0.6-7.4,1.7h-4.3v0.6 M113.9,160l11.7,1.1c1.8,0.2,3.4-1.1,3.6-3   c0,0,0,0,0,0c0-0.1,0-0.2,0-0.3v-8.9 M129.3,113V98.7c0-1.8-1.5-3.3-3.3-3.3h-0.1l-34.9,1.2c-1.8,0.1-3.2,1.5-3.2,3.3v13    M53.4,168.9c-1.4,0-2.6,1.2-2.6,2.6s1.2,2.6,2.6,2.6s2.6-1.2,2.6-2.6S54.8,168.9,53.4,168.9z M53.4,168.9v-1.1 M56,170.8l1.6-2    M75.9,159.3c0,0,26.2-4.4,34.4-12.9l5.7-5.8l2.6-2.6 M127,125.2l-12-0.1c0,0-5.5,4.2-13.8,9.7 M116,140.7c0,0,15.8,3.7,28.4,2.2   c9.3-1.2,14.6-4.8,16.9-6.4 M107.7,121.4H99c0,0-13.6,14-19.6,18.1l-6,4.1c2.6-0.8,5.4,0.1,7.2,2.2c1,1.1,1.6,2.6,1.6,4.1l19-15.2    M136.7,120.5l-5.5,0.9 M158.6,93.9c0,0-7.4-0.2-10.5,4.3c-2.8,4-13.1,14.1-13.5,13.9 M148,101.5c0,0,0.3,4.3-0.7,5.5   c-1,1.2-4.5,10.2-4.5,10.2c-1.2-0.1-2.4,0.1-3.4,0.7c-2.9,1.6-2.6,2.7-2.6,2.7s2.7-0.9,9.1,2.1c4.9,2.3,12.3,10.3,15.4,13.8    M101.3,103.3l6.4,18.1c0.1,0.4,0.5,0.7,1,0.8l19,3c0.2,0,0.4-0.1,0.5-0.3c0,0,0,0,0,0c0-0.1,0-0.1,0-0.2l-6.9-21   c-0.2-0.5-0.6-0.9-1.1-0.9h-18.4c-0.2,0-0.4,0.2-0.4,0.4C101.2,103.2,101.2,103.3,101.3,103.3L101.3,103.3z M127.7,123.4l0.4,1.1   c0.2,0.5,0.6,0.9,1.1,0.9h18.4 M128.1,124.5h19.6c0,0,0,0,0-0.1l0,0l-15.9-2.6h-0.9 M147.6,124.5v0.9 M129.4,119   c0,0.4-0.2,0.7-0.4,1c-0.3,0.4-1.5,0.4-1.5,1.3c0,0.8,1,1.3,2.1,1c1.1-0.3,1.8-0.7,1.9-1.4s0.1-2.1-0.7-2.6c-0.8-0.5-1.7-1-2.6-1.3   c-0.8,0-1.7,0.1-2.5,0.2 M128.9,121.4c0,0-0.3-0.4-0.5-0.5c-0.2,0-0.4-0.1-0.6-0.2 M129,120c-0.3-0.1-0.6-0.2-0.9-0.2   c-0.4,0-1.1,1.1-1.1,1.1 M131.5,120.9c1.6-0.6,3.2-1.1,4.8-1.5c1.5-0.3,2.4-2-0.7-3.7c-3.1-1.7-6.2,1.9-6.2,1.9 M140.5,117.4   c-0.1-1.1-0.6-2.2-1.4-3c-1.1-1.3-2.7-2.2-4.5-2.3c-2.3-0.1-3.2,0.9-4.1,2.6c-0.3,0.6-0.3,1.3,0.1,1.8 M143.5,115.5   c-0.1-0.8-0.3-1.6-0.7-2.2c-0.9-1.3-1.6-1.3-1.6-1.3 M167.3,88.4c-0.2-0.6-0.8-1.1-1.4-1c-1.3,0-2.7,0.6-2.8,0.9   c-0.1,1.1-0.1,2.3,0,3.4c0,0,0.4,0.3,0.6-0.1 M164.1,88.8c0,0-0.8,3.5-0.5,5.1c0.2,1,0.5,2,0.9,2.9c0,0-0.9,3.1-0.5,9.1   c0.4,6.1,0.1,8.6,2.7,8.4c2-0.2,3.8-1.1,5.1-2.7c1.4-1.7,1.6-4.1,0.5-5.9c-1.7-2.8-2.8-5.9-3.2-9.1c0-1.1,2.7-6.3,3-7   c0.4-0.7-0.2-1.3-0.9-2.6s-2.6-1.2-2.6-1.2 M170.5,88.9c-0.1-0.7-0.3-1.4-0.7-2c-0.5-0.6-2.1-1.7-2.5-1.6c-1.1,0.7-2.1,1.5-3,2.4    M169.1,88.5c-0.7-0.8-1.5-1.6-2.3-2.2c-0.7-0.3-1.7,0.5-1.7,0.5 M166,118.9c0.5,1.1,1.3,2.1,2.3,2.8 M180.5,115.8l0.2-0.3   c1.3-2.1,3.3-10,2.1-14.6c-1.1-4.7-4.4-3.8-4.4-3.8c-1.9,0.6-3.7,1.5-5.2,2.8c-1.1,0.9-1.8,2.2-2.2,3.6 M179,115.2   c0,0,0.8-2.6-0.2-4.5s-3.8-3.2-3.8-3.2 M159.7,91.1c0.4,1.4,0.6,2.9,0.8,4.4c-0.1,1.2-0.2,2.4-0.4,3.6l4.2-3 M164,101.3l-0.2-1.9   c-0.1-0.7-0.7-1.3-1.4-1.2c0,0,0,0,0,0c-0.1,0-0.2,0-0.4,0.1l-1.9,0.8c0,0-1.3,2.6-2.2,3.9c-0.9,1.4-10.6,14.3-10.6,14.3   c-0.6,0.3-1.3,0.5-1.9,0.7c-1.5,0.4-2.4,3.4-2.4,3.4 M169.3,97.6c0,0,0.9-0.9,1.5-1.7c0.5-0.7,1-1.3,1.6-1.9l-1.2-2.1 M160.1,92.9   c-1.4,0.1-2,2.2-2,2.2s-0.2,2.3-0.3,3.6s0,1.1,0,1.1s0.7-3.1,1.1-3.2c0.4-0.1,1.5,1.9,0.6,3.5 M155,73.8c0,0-2.1,4.9,0.4,11.3   c2.5,6.4,4.4,6.2,5.1,6.2c0.8-0.1,1.7-0.3,2.5-0.7 M180.7,97.5c-1-0.7-2-1.2-3.1-1.7c-1.6-0.7-5.3-1.7-5.3-1.7 M66.9,158.2l4.1-5.3   c0,0,7.1,3.2,5.8,5.4c-1.3,2.2-4.4,2.8-6.6,1.7C67.9,158.8,66.9,158.2,66.9,158.2l-0.4-0.6l4-5.1c0,0-0.8-0.2-2.2-0.7   c-1.4-0.5-4.5-2.2-7.9-5.7c-2.6-2.6-7.7-4.4-10.7-5.1c-2.8-0.7-3.2,1.3-3.3,2.3c-0.3,2.3,0.2,5,3.7,8.9c4.5,5.1,14,5.2,14.9,5.2   c0.5,0,1,0.1,1.5,0.3 M71,152.9l-0.5-0.5 M76.8,158.2c0.3-0.4,0.5-0.9,0.6-1.4c0-0.6-1.6-2.2-3.2-3.1c-1.9-1.1-3.9-2-5.9-2.7   c-2.9-1.1-6.6-4.9-8.8-6.8c-2.2-1.9-8.5-3.8-9.7-3.8c-0.7-0.1-1.3,0.1-1.9,0.4 M77.4,156.8c0.4-0.8,0.6-1.5,0.8-2.4   c0.1-0.5,0.3-0.9,0.5-1.3l2.7-2.9c-0.5-1.7-1.4-3.3-2.7-4.6c-1.4-1.2-3.2-1.7-5-1.4l-0.7,0.3c-1.6,0.8-3.4,1.1-5.2,1   c-1.1,0-2.1-0.2-3.2-0.4c-2.8-0.6-6.6-2.8-9-3.5c-2.4-0.7-5.4-1.3-5.4-1.3 M72.5,160.8c0,0-1.5,1.4-1.9,1.7   c-0.4,0.3-2.3-0.5-4.8,0.3c-2.5,0.8-4.1,2.1-8.5,0.6c-3.1-1-6-2.8-8.1-5.3c-1.9-2-1.6-3.4-1.6-3.4l-0.5,0.6c0,0-0.9,1.1,2.4,4.2   c3.3,3.1,6.5,5,9.3,5.1c2.7,0.1,4.1-0.8,6.1-1.2l2-0.5l-0.4,0.6c0.6,0.1,1.2,0.2,1.9,0.2c0.9-0.1,1.8-0.6,2.5-1.2h-1.2 M52.5,154   c-0.8-0.2-1.7-0.3-2.6-0.3c-0.9,0.1-1.8,0.5-2.4,1.2 M164.4,111.8c0,0-0.6,0.8-0.9,1.1c-0.2,0.3,1.2,5,1.6,5.6s4,1.5,8.2-1   c1.5-0.8,2.6-2.2,3.2-3.7c0.5-1.3,0.3-2.8-0.3-4c-0.4-0.9-1-1.8-1.6-2.6c-0.5-0.3-1.1-0.5-1.7-0.5 M73.5,143.5   c-0.2,0.1-0.4,0.3-0.4,0.6c0,0.1,0,0.3,0.1,0.4 M82.2,149.5l-0.7,0.6 M76.8,144.4c0,0-2.5,2.5-4,4c-1.3,1.2,2.1,4.4,4,3.3   c1.5-1,2.8-2.1,4-3.4 M185.4,105.2c-0.4,2.9-1.2,5.8-2.2,8.5c-1.7,4-12.1,2-19,12.9c-4.4,6.9-3.1,14-0.9,18.9 M185.9,141.9   c0.9-4.7,1.7-10.4,2.6-14.8c1.6-8.6,1-17.8-2.1-25.4c-1.9-4.8-7.6-8.1-14.8-8.9 M131.8,112.8c-2.4,0.1-4.9,0.5-7.3,1 M111.2,145.6   c0,0,30.3,5.7,38.3,6.2c3.7,0.2,8.3,0.3,12.1,0.2 M151.2,151.9l-0.5,32c0.2,0.2,0.6,0.3,0.9,0.2c0.4,0,0.7-0.2,1-0.4l2.8-31.7    M113.7,161l2.7-14.4 M112.8,145.9l-1.2,10.3 M143.8,151.2l2.5,13.7c0.3,0.2,0.6,0.4,0.9,0.4c0.4,0,0.7-0.2,1-0.4l-1.5-13.2    M161.5,138.9l-3.1-0.6 M161.5,180.2c0,3.3,9.7,6,21.7,6c12,0,21.7-2.7,21.7-6 M171.7,142.9c-6.1,1.1-10.2,2.8-10.3,4.9   c0,3.3,9.7,6,21.7,6s21.7-2.7,21.7-6s-9.7-6.4-21.7-6c-1.1,0-2.1,0.1-3.2,0.1 M161.4,180.2v-32.4 M204.8,180.2v-32.4 M176,141.2   c-2.4,0-4.3,0.5-4.3,1.2c0,0.6,1.9,1.2,4.3,1.2s4.3-0.5,4.3-1.2S178.4,141.2,176,141.2L176,141.2z M172.6,145.7   c-2,0.3-3.4,0.9-3.4,1.6c0,1,3,1.9,6.8,1.9c3.7,0,6.8-0.9,6.8-1.9c0-0.7-1.4-1.3-3.4-1.6 M171.7,142.4c0,0,0.2,5.1,4.3,5.1   s4.3-5.1,4.3-5.1 M179.3,145.7h0.9c0.4,0,0.8-0.3,1-0.7l0,0c0.3-0.6,0-1.3-0.6-1.5c-0.1-0.1-0.3-0.1-0.4-0.1l0,0 M125.1,162.9   c-0.2,0.3-0.3,0.7-0.3,1.1c0,0.9,0.8,1.7,1.7,1.7c0.1,0,0.2,0,0.3,0c1-0.1,1.8-1,1.8-2c0-0.2,0-0.4-0.1-0.6 M127.5,165.5l0.7-0.1   c1-0.1,1.7-1,1.7-2c0-0.1-0.1-0.2-0.1-0.4 M130.1,163c0.3,0.5,0.8,0.8,1.4,0.7c0.8-0.1,1.4-0.8,1.5-1.6 M132.1,163.6l0.6-0.1   c0.9-0.1,1.5-0.9,1.5-1.8v-0.2 M111,184.8l2.6,0.3l-1.3-0.6c1-0.1,1.7-0.9,1.8-1.9l0.3-11.3c0.4-14.1-2.8-16.8-6.6-16.8   c-3.9,0-7.3,2.3-7.5,13.4l-0.3,17.4c0,1.1,0.8,2.1,2,2.1c0,0,0,0,0,0h0L111,184.8z M86.1,157.1c-0.9,2.8-1.3,5.7-1.2,8.6   c-0.1,10.5-0.2,18.2-0.2,18.2 M88,156.8c-0.9,1.9-1.4,4.6-1.5,8.9c-0.1,10.5-0.2,18.4-0.2,18.4 M73.3,160.5c0,0.3-0.1,0.6-0.1,1    M73,181.2c0,0,0-6.3,0.1-16.3c0-0.8-0.1-1.6-0.1-2.3 M74.8,160c-0.2,1.7-0.3,3.3-0.3,5c-0.1,10.1-0.1,16.5-0.1,16.5 M107.6,154.5   l-10.8-0.6 M63.4,164.1v12.4c-0.1,1.3,0.8,2.5,2,2.9l35.9,8 M72,161.2c0.8,1.8,2.7,3,5.8,3c4,0.1,4.7-3.4,6.4-6.4 M72.9,160.4   c0.4,2.2,2,3.7,4.7,3.8c2.9,0,3.7-3.3,4.9-6.2 M108.1,172.9c0.3-0.2,0.4-0.5,0.4-0.8l0.4-17.5 M106.9,154.7l-0.4,17.3   c0,0.2,0,0.3,0.1,0.4 M108.3,167.5c1.2-0.3,0.3-2.4,0.3-2.4l-2,0.1c0,0-0.7,2,0.6,2.3 M107.3,168.9c0,0-2.7,10.4,0.6,13.7   s9.4,3.6,9.9,2.5s-3.8-2.4-3.8-2.4 M108.4,168.8c0,0-2.4,10.6,0.8,13.9c3.2,3.3,9.4,3.6,9.9,2.5s-3.8-2.4-3.8-2.4 M107.2,168.7   c0.1,0.2,0.2,0.2,0.7,0.1c0.4,0,0.4,0,0.6-0.2c0.1-0.2,0-1.6-0.6-1.6C107.2,167.1,107,168.5,107.2,168.7L107.2,168.7z M172.1,88.4   l3.3-5.5c0.2-0.4,0.1-0.9-0.3-1.2l-3.4-1.9c-0.4-0.2-0.9-0.1-1.1,0.3l-3,5.1 M173.5,80.8l-2.4-1.3c-0.4-0.2-0.9-0.1-1.1,0.3   l-3.6,6.1 M141.6,121l-3.3,1.9 M169.1,98.1c0.2-0.1-0.1,0-0.3,0.1 M164.2,98.5c0.9,0.2,1.7,0.3,2.6,0.2 M169.2,100.4   c0.3-0.1,0.5-0.1,0.8-0.2 M164.2,100.6c1,0.3,2,0.4,3,0.2 M168,97.9c-0.9-0.2-1.8,0.4-2.1,1.3c-0.2,0.9,0.4,1.8,1.3,2.1   c0.9,0.2,1.8-0.4,2.1-1.3c0-0.1,0-0.2,0-0.4C169.4,98.7,168.8,98,168,97.9L168,97.9L168,97.9z"/>
	<g id="blackFill_9_">
		<path class="st4" d="M170.2,70.9c-2.2-2.6-5.5-4.2-8.9-4.3c-4.1-0.1-5.3,2.7-5.6,4.3l0,0c0,0-3.7,2.6-2.6,5.6l1.1,3    c-0.1-1.3,0-2.7,0.3-4c0.4-1.4,0.6-2.4,0.6-2.4l-0.2,0.6c-0.1,0.8,1.4,1.3,2.7,1.5c4,0.5,5.4-0.9,6.5,0c0.8,0.7,1.8,1.2,2.8,1.5    v3.4c0.1,0.4,0.4,0.7,0.9,0.6c0.1,0,0.2-0.1,0.3-0.1l0.6-0.6c0.4-0.4,1-0.7,1.7-0.7h0.4c0-0.8,0.1-1.7,0.3-2.5    c0.1-0.2,0.1-0.5,0.1-0.8C171.2,74.6,171.1,72.1,170.2,70.9z"/>
		<path class="st4" d="M171.1,80.6c-0.2,0.1-0.3,0.4-0.1,0.7c0,0,0,0,0,0l0,0c0.2,0.2,0.5,0.3,0.7,0.1c0,0,0,0,0,0    c0.2-0.2,0.3-0.5,0.1-0.7C171.6,80.4,171.3,80.3,171.1,80.6L171.1,80.6z"/>
		<polygon class="st4" points="117.1,125 126.7,125 108.6,122.2   "/>
		<path class="st4" d="M155.4,139.8c-3.3,1.3-8.3,2.6-8.3,2.6s5.4-0.8,8.3-1.5c2.9-0.8,5.4-0.2,5.9,0.4s0.9,1.1,0.9,1.1    c-0.5-1.3-0.8-2.7-0.9-4.1v-1.9C159.6,137.8,157.6,139,155.4,139.8z"/>
		<path class="st4" d="M113.8,183.3c0,0,0.6,0.7-4.9,2.1c-3.9,1-7.1,2.1-7.1,2.1s7.1,0.8,13.1-0.6    C127.2,184.2,113.8,183.3,113.8,183.3z"/>
		<path class="st4" d="M164.2,183.1h-11.5l-0.1,0.7l-1.2,0.5h15.6c0,0-0.9-0.4-1.9-0.8L164.2,183.1z"/>
		<path class="st4" d="M184.4,147.6c0-0.6-2-1.5-3.7-1.8c0.7,0.3,1.3,0.7,1.9,1.2c0.6,0.6,0.1,0.9-2.2,1.7c-2.3,0.9-7,0.4-7,0.4    c1.4,0.3,2.8,0.4,4.2,0.4C181.3,149.5,184.4,148.6,184.4,147.6z"/>
		<path class="st4" d="M107,154.4l-9.6-0.5c0,0-5.1,1.3-8.6,2.3s-12.4,3.1-12.4,3.1s-0.9,3.1,1.3,3.3c1.2,0.1,1.7,0,3-1.5    s2-3.1,4.7-3.8c4.5-1,9.1-1.6,13.8-1.7c3.7,0,4.6,0.1,4.6,0.1L107,154.4z"/>
		<path class="st4" d="M204.9,176.9v3.3c0,1-2,3.3-8.3,4.7c-6.3,1.4-18.9,1.2-18.9,1.2c3.4,0.5,6.8,0.7,10.2,0.7    c12,0,21.7-2.7,21.7-6C209.6,179.3,207.8,178,204.9,176.9z"/>
		<path class="st4" d="M167,120.5c-0.3-0.6-0.7-1.2-1.2-1.6l-0.5-0.2c0,0,0.2,2.5,0.4,3.5c0.1,0.6,0.3,1.1,0.5,1.6l2.1-2.1    C168.4,121.7,167.7,121.7,167,120.5z"/>
		<path class="st4" d="M182.5,114.6c0.4-0.6,0.7-2,0.9-5.8c0.1-2,0.1-3.9-0.2-5.8c-0.2,3-0.5,5.9-1.1,8.8c-0.7,3.6-2.5,4.4-2.5,4.4    S182.1,115.2,182.5,114.6z"/>
		<path class="st4" d="M82.3,151.2c1.4-2.6,5-5.5,5.6-5.9l-6.7,5.2c-1,1.1-2,2.2-2.8,3.4c-0.3,0.8-0.6,1.6-0.7,2.5    c0,0-0.1,0.3-0.4,1.2c-0.3,0.6-0.7,1.1-1.1,1.6l3.8-0.7C80.4,156,81.2,153.5,82.3,151.2z"/>
		<path class="st4" d="M87.9,145.3L87.9,145.3L87.9,145.3z"/>
		<path class="st4" d="M178.4,146.8c0.4,0.1,0.7,0.3,0.7,0.5c0,0.4-1.2,0.8-2.6,0.8c-1.4,0-2.6-0.3-2.6-0.8c0-0.1,0.1-0.2,0.2-0.3    c0.7,0.5,1.6,0.7,2.4,0.5C178.1,147.3,178.4,146.8,178.4,146.8z"/>
	</g>
</g>
</svg>