<svg xmlns:dc="http://purl.org/dc/elements/1.1/" xmlns:cc="http://creativecommons.org/ns#" xmlns:rdf="http://www.w3.org/1999/02/22-rdf-syntax-ns#" xmlns:svg="http://www.w3.org/2000/svg" xmlns="http://www.w3.org/2000/svg" id="svg2" version="1.1" viewBox="0 0 16.000757 16.203932" height="16.203932" width="16.000757">
  <metadata id="metadata17">
    <rdf:RDF>
      <cc:Work rdf:about="">
        <dc:format>image/svg+xml</dc:format>
        <dc:type rdf:resource="http://purl.org/dc/dcmitype/StillImage"/>
        <dc:title>@3x</dc:title>
      </cc:Work>
    </rdf:RDF>
  </metadata>
  <defs id="defs8"/>
  <g transform="translate(0,-0.875)" style="fill:none;fill-rule:evenodd;stroke:none;stroke-width:1" id="Page-1">
    <g style="stroke:#201c17" transform="translate(-1208,-101)" id="portal_szortmenu_v14_HD">
      <g id="navi">
        <g transform="translate(134,101)" id="lvl1">
          <path id="" d="m 1086.0472,12.899439 -1.7226,-1.753809 0.2836,-0.347031 c 0.8796,-1.0763452 1.3159,-2.2966179 1.3159,-3.6796969 0,-1.5955371 -0.5535,-2.9411919 -1.6715,-4.0649125 C 1083.1351,1.9307623 1081.7977,1.375 1080.2121,1.375 c -1.5857,0 -2.9231,0.5557623 -4.0406,1.6789896 -1.118,1.1237206 -1.6715,2.4693754 -1.6715,4.0649125 0,1.5955371 0.5535,2.9411919 1.6715,4.0649129 1.1175,1.123227 2.4549,1.678989 4.0406,1.678989 1.4316,0 2.6705,-0.465763 3.7386,-1.405208 l 0.3531,-0.310505 1.7434,1.752348 z m 0,0 3.4287,3.446236 c 8e-4,-9.18e-4 0,-0.0019 0,-0.0028 0.029,-0.02738 0.031,0.07692 -0.01,0.04132 l -0.018,-0.01735 -3.4058,-3.467392 z"/>
        </g>
      </g>
    </g>
  </g>
</svg>